<svg xmlns="http://www.w3.org/2000/svg" id="Слой_1" data-name="Слой 1" viewBox="0 0 66.88 14.77"><title>logo</title><polygon points="4.28 14.72 0.61 14.72 6.72 8.6 6.11 7.99 0 14.11 0 10.43 10.39 0.04 14.06 0.04 7.94 6.14 8.55 6.76 14.67 0.65 14.67 4.32 4.28 14.72 4.28 14.72" fill="#fff"/><polygon points="5.5 14.71 14.67 5.54 14.67 9.21 12.84 11.04 14.67 12.87 14.67 14.71 12.84 14.71 11.01 12.87 9.17 14.71 5.5 14.71 5.5 14.71" fill="#fff"/><polygon points="0 9.2 0 3.7 1.22 4.92 2.14 4 0 1.86 0 0.03 1.84 0.03 3.98 2.17 4.89 1.25 3.67 0.03 9.17 0.03 0 9.2 0 9.2" fill="#fff"/><path d="M18.54,3.27a.14.14,0,0,1-.11,0,.15.15,0,0,1,0-.11V2.56a.15.15,0,0,1,0-.11.14.14,0,0,1,.11,0h2.4V2.34a2.45,2.45,0,0,0-.09-.72,1,1,0,0,0-.25-.45A.87.87,0,0,0,20.18,1,2.39,2.39,0,0,0,19.6.89H18.37a.15.15,0,0,1-.11,0,.15.15,0,0,1,0-.11V.29a.15.15,0,0,1,0-.12.26.26,0,0,1,.12,0c.12,0,.29,0,.5-.08a6.94,6.94,0,0,1,.74,0,3.61,3.61,0,0,1,.86.1,1.77,1.77,0,0,1,.77.4,2.13,2.13,0,0,1,.56.86A4.11,4.11,0,0,1,22,2.84v.29a4.8,4.8,0,0,1-.1,1,2.79,2.79,0,0,1-.27.75,1.62,1.62,0,0,1-.4.49,2.06,2.06,0,0,1-.5.29,2.13,2.13,0,0,1-.56.14,4.63,4.63,0,0,1-.58,0,6.58,6.58,0,0,1-.74,0,2.15,2.15,0,0,1-.5-.08.25.25,0,0,1-.12,0,.15.15,0,0,1,0-.12V5.08a.14.14,0,0,1,0-.11.15.15,0,0,1,.11,0h1.23a2.4,2.4,0,0,0,.58-.06.88.88,0,0,0,.42-.23,1,1,0,0,0,.25-.44,2.47,2.47,0,0,0,.09-.72V3.27Z" transform="translate(0 0)" fill="#fff"/><path d="M27.38,1.85a1.83,1.83,0,0,1-.19.86,1.54,1.54,0,0,1-.49.56,2,2,0,0,1-.69.3,4,4,0,0,1-.85.09h-.69v2a.16.16,0,0,1,0,.11.14.14,0,0,1-.1,0h-.77a.16.16,0,0,1-.16-.16V.37A.19.19,0,0,1,23.48.2a.37.37,0,0,1,.18-.07l.69-.08h.82A4.11,4.11,0,0,1,26,.14a2,2,0,0,1,.69.29,1.51,1.51,0,0,1,.49.55,1.8,1.8,0,0,1,.19.85Zm-1.07-.07A.79.79,0,0,0,26,1.1a1.5,1.5,0,0,0-.87-.21h-.69V2.73h.69A1.37,1.37,0,0,0,26,2.49a.87.87,0,0,0,.27-.69Z" transform="translate(0 0)" fill="#fff"/><path d="M32.86,5.65a.12.12,0,0,1,0,.1.15.15,0,0,1-.1,0H31.9a.12.12,0,0,1-.09,0,.2.2,0,0,1-.05-.09L31.4,4.19H29.63l-.36,1.47a.2.2,0,0,1-.05.09.12.12,0,0,1-.1,0h-.82a.14.14,0,0,1-.1,0,.12.12,0,0,1,0-.1h0L29.44.82a1,1,0,0,1,.2-.42,1,1,0,0,1,.28-.23,1,1,0,0,1,.31-.1h.56a.94.94,0,0,1,.59.34,1,1,0,0,1,.2.42l1.26,4.83h0ZM30.64,1a.25.25,0,0,0,0-.1.11.11,0,0,0-.08,0,.11.11,0,0,0-.08,0,.24.24,0,0,0,0,.1l-.56,2.29h1.37Z" transform="translate(0 0)" fill="#fff"/><path d="M42.5,5.77a.15.15,0,0,1-.11,0h-.76a.16.16,0,0,1-.16-.16V3.3H39.28V5.66a.16.16,0,0,1-.16.16h-.76a.16.16,0,0,1-.15-.16V.23a.14.14,0,0,1,0-.1.15.15,0,0,1,.11,0h.76a.15.15,0,0,1,.11,0,.14.14,0,0,1,0,.1V2.34h2.19V.21a.14.14,0,0,1,0-.1.15.15,0,0,1,.11,0h.76a.15.15,0,0,1,.11,0,.14.14,0,0,1,0,.1V5.64A.15.15,0,0,1,42.5,5.77Z" transform="translate(0 0)" fill="#fff"/><path d="M48.34,3.44a3.19,3.19,0,0,1-.16,1.1,2,2,0,0,1-.46.75,1.81,1.81,0,0,1-.69.42,2.81,2.81,0,0,1-1.75,0,1.82,1.82,0,0,1-.69-.42,2,2,0,0,1-.46-.75A3.19,3.19,0,0,1,44,3.44v-1a3.19,3.19,0,0,1,.16-1.09,2,2,0,0,1,.46-.75,1.82,1.82,0,0,1,.69-.42A2.84,2.84,0,0,1,47,.14a1.81,1.81,0,0,1,.69.42,2,2,0,0,1,.46.75,3.19,3.19,0,0,1,.16,1.09Zm-1.07-1A1.82,1.82,0,0,0,47,1.27a1.2,1.2,0,0,0-1.69,0A1.82,1.82,0,0,0,45,2.4v1a1.82,1.82,0,0,0,.27,1.12,1.2,1.2,0,0,0,1.69,0,1.82,1.82,0,0,0,.27-1.12Z" transform="translate(0 0)" fill="#fff"/><path d="M53.79,4.19a1.68,1.68,0,0,1-.16.78,1.37,1.37,0,0,1-.47.51,2.14,2.14,0,0,1-.73.29,4.74,4.74,0,0,1-1,.09h-.82a4,4,0,0,1-.52-.06.6.6,0,0,1-.28-.12.4.4,0,0,1-.09-.29V.53a.44.44,0,0,1,.08-.29A.45.45,0,0,1,50.1.12l.49,0h.79a5.29,5.29,0,0,1,1,.08,2.33,2.33,0,0,1,.75.27,1.33,1.33,0,0,1,.49.48,1.45,1.45,0,0,1,.17.73v.15a1.37,1.37,0,0,1-.18.69,1.08,1.08,0,0,1-.53.47,1.23,1.23,0,0,1,.55.45,1.26,1.26,0,0,1,.2.73ZM52.72,1.62a.6.6,0,0,0-.29-.57,2.26,2.26,0,0,0-1-.17h-.56V2.45h1a1.47,1.47,0,0,0,.45-.05.73.73,0,0,0,.28-.16A.54.54,0,0,0,52.68,2a.93.93,0,0,0,0-.28Zm0,2.45a1,1,0,0,0,0-.31.62.62,0,0,0-.16-.26.82.82,0,0,0-.29-.18,1.27,1.27,0,0,0-.45-.07h-1V5h.63a3.3,3.3,0,0,0,.62,0,1,1,0,0,0,.4-.14.59.59,0,0,0,.22-.25.88.88,0,0,0,.06-.35Z" transform="translate(0 0)" fill="#fff"/><path d="M56.23,2.16h.69a4,4,0,0,1,.85.09,2,2,0,0,1,.69.29,1.52,1.52,0,0,1,.49.55,1.82,1.82,0,0,1,.19.85v.14a1.81,1.81,0,0,1-.19.85,1.51,1.51,0,0,1-.49.55,2,2,0,0,1-.69.29,4.11,4.11,0,0,1-.85.09h-.82a3.8,3.8,0,0,1-.69-.08.37.37,0,0,1-.19-.07.19.19,0,0,1-.07-.16V.25A.16.16,0,0,1,55.31.1h.77a.14.14,0,0,1,.1,0,.16.16,0,0,1,0,.11Zm0,2.74h.69a1.51,1.51,0,0,0,.87-.21A.79.79,0,0,0,58.08,4V3.88a.79.79,0,0,0-.29-.69A1.51,1.51,0,0,0,56.92,3h-.7Zm4.8.69a.15.15,0,0,1,0,.11.14.14,0,0,1-.11,0H60.1a.16.16,0,0,1-.16-.16V.16a.14.14,0,0,1,0-.1.15.15,0,0,1,.11,0h.77a.15.15,0,0,1,.11,0,.14.14,0,0,1,0,.1Z" transform="translate(0 0)" fill="#fff"/><path d="M66.82,5.69a.08.08,0,0,1,0,.07h-1a.16.16,0,0,1-.11,0l-.09-.11L64.49,3.79,63.43,5.61c-.05.1-.12.16-.2.16h-.84c-.08,0-.12,0-.12-.1a.12.12,0,0,1,0-.05l1.64-2.74L62.23.18a.12.12,0,0,1,0,0q0-.1.12-.1h.86a.16.16,0,0,1,.11,0l.09.1L64.54,2l1-1.8a.45.45,0,0,1,.09-.1.18.18,0,0,1,.12,0h.86c.08,0,.12,0,.12.1a.12.12,0,0,1,0,0L65.15,2.92l1.69,2.74Z" transform="translate(0 0)" fill="#fff"/><path d="M22.24,9.83a.16.16,0,0,1-.11,0H20.76v4.68a.16.16,0,0,1-.15.16h-.75a.15.15,0,0,1-.11,0,.14.14,0,0,1,0-.11V9.88H18.33a.16.16,0,0,1-.11,0,.12.12,0,0,1,0-.1V9.13a.14.14,0,0,1,0-.1.16.16,0,0,1,.11,0H22.1a.15.15,0,0,1,.11,0,.14.14,0,0,1,0,.1v.61A.12.12,0,0,1,22.24,9.83Z" transform="translate(0 0)" fill="#fff"/><path d="M26.21,14.62a.24.24,0,0,1-.12,0l-.21,0-.28,0h-1a3.85,3.85,0,0,1-.69-.06,1.41,1.41,0,0,1-.57-.23A1.19,1.19,0,0,1,23,14a2,2,0,0,1-.14-.8V10.5A2,2,0,0,1,23,9.7a1.17,1.17,0,0,1,.38-.48A1.37,1.37,0,0,1,23.94,9a3.74,3.74,0,0,1,.69-.06h1l.28,0,.21,0a.24.24,0,0,1,.12,0,.15.15,0,0,1,0,.12v.49a.16.16,0,0,1-.16.16H24.51a.69.69,0,0,0-.47.14.76.76,0,0,0-.14.53v.83H26a.16.16,0,0,1,.16.16V12a.15.15,0,0,1,0,.11.14.14,0,0,1-.11,0H23.9v1a.76.76,0,0,0,.14.52.64.64,0,0,0,.47.14h1.57a.15.15,0,0,1,.11,0,.14.14,0,0,1,0,.11v.49A.15.15,0,0,1,26.21,14.62Z" transform="translate(0 0)" fill="#fff"/><path d="M31.5,14.62a.08.08,0,0,1,0,.07.13.13,0,0,1-.09,0H30.5a.16.16,0,0,1-.11,0l-.09-.11-1.13-1.82-1.06,1.82c-.05.1-.12.16-.2.16H27c-.08,0-.12,0-.12-.1a.12.12,0,0,1,0-.05l1.64-2.74L26.89,9.13a.12.12,0,0,1,0,0q0-.1.12-.1h.91A.16.16,0,0,1,28,9l.09.1,1.12,1.8,1-1.8a.36.36,0,0,1,.08-.1.17.17,0,0,1,.12,0h.84c.08,0,.12,0,.12.1a.11.11,0,0,1,0,0l-1.62,2.74,1.7,2.74Z" transform="translate(0 0)" fill="#fff"/><path d="M36.49,14.68a.15.15,0,0,1-.11,0h-.76a.16.16,0,0,1-.16-.16V12.21H33.27v2.36a.16.16,0,0,1-.15.16h-.74a.16.16,0,0,1-.15-.16V9.13a.14.14,0,0,1,0-.1.16.16,0,0,1,.11,0h.76a.16.16,0,0,1,.11,0,.14.14,0,0,1,0,.1v2.12h2.19V9.13a.14.14,0,0,1,0-.1.16.16,0,0,1,.11,0h.76a.16.16,0,0,1,.11,0,.13.13,0,0,1,0,.1v5.43A.14.14,0,0,1,36.49,14.68Z" transform="translate(0 0)" fill="#fff"/><path d="M41.91,12.36a3.23,3.23,0,0,1-.16,1.1,2,2,0,0,1-.46.75,1.83,1.83,0,0,1-.69.42,2.84,2.84,0,0,1-1.75,0,1.82,1.82,0,0,1-.69-.42,2,2,0,0,1-.46-.75,3.19,3.19,0,0,1-.16-1.1v-1a3.2,3.2,0,0,1,.16-1.09,2,2,0,0,1,.46-.75,1.8,1.8,0,0,1,.69-.42,2.84,2.84,0,0,1,1.75,0,1.81,1.81,0,0,1,.69.43,2,2,0,0,1,.46.75,3.24,3.24,0,0,1,.16,1.09Zm-1.07-1a1.82,1.82,0,0,0-.27-1.12,1.2,1.2,0,0,0-1.69,0,1.84,1.84,0,0,0-.27,1.12v1a1.83,1.83,0,0,0,.27,1.12,1.19,1.19,0,0,0,1.69,0h0a1.82,1.82,0,0,0,.27-1.12Z" transform="translate(0 0)" fill="#fff"/><path d="M44.71,9.94a.24.24,0,0,0,0-.1h-.08a.11.11,0,0,0-.08,0,.22.22,0,0,0,0,.1l-1.13,4.63a.21.21,0,0,1-.05.1.12.12,0,0,1-.09,0h-.82a.15.15,0,0,1-.1,0,.13.13,0,0,1,0-.1h0l1.27-4.83a1,1,0,0,1,.2-.42A1,1,0,0,1,44,9.09,1,1,0,0,1,44.3,9h.56a1,1,0,0,1,.31.1,1,1,0,0,1,.28.23,1,1,0,0,1,.2.42l1.27,4.83h0a.13.13,0,0,1,0,.1.15.15,0,0,1-.1,0H46a.12.12,0,0,1-.09,0,.2.2,0,0,1-.05-.1Z" transform="translate(0 0)" fill="#fff"/><path d="M51.67,12.36a3.22,3.22,0,0,1-.16,1.1,2,2,0,0,1-.46.75,1.82,1.82,0,0,1-.69.42,2.84,2.84,0,0,1-1.75,0,1.82,1.82,0,0,1-.69-.42,2,2,0,0,1-.46-.75,3.22,3.22,0,0,1-.16-1.1v-1a3.23,3.23,0,0,1,.16-1.09,2,2,0,0,1,.46-.75,1.8,1.8,0,0,1,.69-.42,2.84,2.84,0,0,1,1.75,0,1.8,1.8,0,0,1,.69.43,2,2,0,0,1,.46.75,3.23,3.23,0,0,1,.16,1.09Zm-1.07-1a1.84,1.84,0,0,0-.27-1.12,1.2,1.2,0,0,0-1.69,0,1.82,1.82,0,0,0-.27,1.12v1a1.82,1.82,0,0,0,.27,1.12,1.19,1.19,0,0,0,1.69,0h0a1.83,1.83,0,0,0,.27-1.12Z" transform="translate(0 0)" fill="#fff"/><path d="M53.72,14.56a.15.15,0,0,1,0,.11.16.16,0,0,1-.11,0H52.8a.16.16,0,0,1-.16-.16V10.5a2,2,0,0,1,.14-.8,1.19,1.19,0,0,1,.38-.48A1.37,1.37,0,0,1,53.73,9a3.74,3.74,0,0,1,.69-.06h1l.27,0,.21,0A.25.25,0,0,1,56,9a.15.15,0,0,1,0,.12v.49a.15.15,0,0,1,0,.11.14.14,0,0,1-.11,0H54.31a.69.69,0,0,0-.47.14.77.77,0,0,0-.14.53Z" transform="translate(0 0)" fill="#fff"/><path d="M57,9.13A.13.13,0,0,1,57.16,9h.71a.13.13,0,0,1,.14.14v4.06s0,.07,0,.07,0,0,.06-.06l1.8-4a.46.46,0,0,1,.14-.2.37.37,0,0,1,.2,0h.83a.3.3,0,0,1,.22.09.29.29,0,0,1,.09.22v5.27a.16.16,0,0,1-.16.16h-.69l-.08,0a.16.16,0,0,1,0-.11V10.69s0-.06,0-.06,0,0-.07.06l-1.71,3.76a.41.41,0,0,1-.21.25.93.93,0,0,1-.25,0h-.78a.3.3,0,0,1-.31-.29s0,0,0,0Z" transform="translate(0 0)" fill="#fff"/><path d="M62.53,14.4V9.12A.13.13,0,0,1,62.64,9h.71a.13.13,0,0,1,.14.14v4.06s0,.07,0,.07,0,0,.06-.06l1.8-4a.45.45,0,0,1,.14-.2.36.36,0,0,1,.2,0h.83a.3.3,0,0,1,.31.29s0,0,0,0v5.27a.16.16,0,0,1-.16.16H66a.14.14,0,0,1-.1,0,.15.15,0,0,1,0-.11V10.67s0-.06,0-.06,0,0-.07.06l-1.71,3.76a.41.41,0,0,1-.21.25.93.93,0,0,1-.26,0h-.8a.26.26,0,0,1-.27-.31Zm3.58-7h0a1.62,1.62,0,0,1-.15.42,1.29,1.29,0,0,1-.27.36,1.25,1.25,0,0,1-.4.25,1.66,1.66,0,0,1-1.09,0,1.27,1.27,0,0,1-.4-.25,1.32,1.32,0,0,1-.27-.36,1.62,1.62,0,0,1-.15-.42h0s0-.05.08-.05H64q.08,0,.1.09a.62.62,0,0,0,1.23,0c0-.06,0-.09.1-.09h.58a.06.06,0,0,1,0,.05Z" transform="translate(0 0)" fill="#fff"/></svg>