<?xml version="1.0" encoding="utf-8"?>
<!-- Generator: Adobe Illustrator 23.0.4, SVG Export Plug-In . SVG Version: 6.00 Build 0)  -->
<svg version="1.1" id="Слой_1" xmlns="http://www.w3.org/2000/svg" xmlns:xlink="http://www.w3.org/1999/xlink" x="0px" y="0px"
	 viewBox="0 0 210 62" style="enable-background:new 0 0 210 62;" xml:space="preserve">
<style type="text/css">
	.st0{fill:#D20A11;}
	.st1{fill:#706F6F;}
</style>
<g>
	<polygon class="st0" points="20.4,0.4 20.4,14.5 7.3,14.5 7.3,0.4 0.5,0.4 0.5,35.1 3.9,35.1 7.3,35.1 7.3,20.5 20.4,20.5 
		20.4,35.1 23.8,35.1 27.1,35.1 27.1,0.4 	"/>
	<polygon class="st0" points="35.5,9.1 32.2,9.1 32.2,35.1 35.5,35.1 38.8,35.1 38.8,9.1 	"/>
	<rect x="32.2" y="0.4" class="st0" width="6.6" height="5.7"/>
	<polygon class="st1" points="79.8,0.4 73.3,24.8 67.2,0.4 62.2,0.4 56.1,24.8 49.5,0.4 42.7,0.4 53.2,35.1 56,35.1 58.7,35.1 
		64.7,11.8 64.7,11.8 70.7,35.1 73.4,35.1 76.1,35.1 86.7,0.4 	"/>
	<polygon class="st1" points="115.7,0.4 115.7,9.3 112.6,9.3 112.6,14.6 115.7,14.6 115.7,35.1 122,35.1 122,14.6 125.8,14.6 
		125.8,9.3 122,9.3 122,0.4 	"/>
	<path class="st1" d="M134.4,27.3c1.5,1.5,3.3,2.3,5.6,2.3c1.2,0,2.3-0.3,3.4-0.9c1.1-0.6,1.9-1.5,2.4-2.6h7
		c-0.9,2.7-2.5,4.9-4.9,6.5c-2.4,1.6-5.1,2.4-8.2,2.4c-3.9,0-7.1-1.3-9.9-3.9c-2.7-2.6-4.1-5.7-4.1-9.4c0-3.7,1.4-6.8,4.1-9.4
		c2.7-2.6,6-3.9,9.9-3.9c3.1,0,5.9,0.8,8.3,2.5c2.4,1.7,4.1,3.9,5,6.6h-7c-0.6-1.2-1.4-2.1-2.5-2.7c-1.1-0.6-2.3-0.9-3.8-0.9
		c-2.1,0-3.9,0.7-5.3,2.2c-1.5,1.5-2.2,3.3-2.2,5.4C132.1,23.9,132.9,25.8,134.4,27.3"/>
	<path class="st1" d="M177.9,35.1h-3.2h-3.2V20.9c0-2.3-0.4-4-1.3-5.2c-0.9-1.2-2.2-1.8-3.9-1.8c-1.8,0-3.2,0.6-4.1,1.8
		c-0.9,1.2-1.4,3-1.4,5.4v14h-3.1h-3.2V0.4h3.2h3.2v10c2-1.8,3.9-2.6,6.5-2.6c3.1,0,6,1.7,7.8,3.7c1.8,2,2.7,4.7,2.7,8.1V35.1z"/>
	<path class="st1" d="M97.6,13.9c-2.2,0-4.1,0.8-5.6,2.3c-1.5,1.5-2.2,3.4-2.2,5.6c0,2.2,0.7,4.1,2.2,5.6c1.5,1.5,3.3,2.3,5.5,2.3
		c2.2,0,4.1-0.8,5.6-2.3c1.5-1.5,2.2-3.4,2.2-5.6c0-2.2-0.7-4.1-2.2-5.6C101.6,14.6,99.8,13.9,97.6,13.9 M111.1,35.1h-2.9h-2.9v-3.6
		c-2.5,2.4-5.4,3.6-8.9,3.6c-3.6,0-6.7-1.3-9.2-3.9c-2.5-2.6-3.8-5.7-3.8-9.4c0-3.7,1.3-6.8,3.8-9.4c2.5-2.6,5.6-3.9,9.3-3.9
		c3.5,0,6.5,1.2,8.9,3.6V9.3h5.8V35.1z"/>
	<polygon class="st1" points="7.3,48.6 7.3,50.2 2.2,50.2 2.2,60.5 0.5,60.5 0.5,48.6 	"/>
	<path class="st1" d="M14,60.5l-0.9-3.2H9.4l-0.9,3.2H6.8L10,48.6h2.4l3.2,11.9H14z M11.3,50.3l-1.5,5.4h2.9L11.3,50.3z"/>
	<path class="st1" d="M20.9,55.9h-2.1v4.5h-1.7V48.6h3.7c2.8,0,3.4,2.2,3.4,3.3v0.8C24.2,53.7,23.7,55.9,20.9,55.9 M22.6,51.9
		c0-1.5-1.1-1.7-1.8-1.7h-2v4.2h2c0.6,0,1.7-0.2,1.7-1.7V51.9z"/>
	<path class="st1" d="M31.8,60.5l-0.9-3.2h-3.7l-0.9,3.2h-1.7l3.2-11.9h2.4l3.2,11.9H31.8z M29.1,50.3l-1.5,5.4h2.9L29.1,50.3z"/>
	<polygon class="st1" points="40.6,60.5 40.6,55 36.6,55 36.6,60.5 35,60.5 35,48.6 36.6,48.6 36.6,53.4 40.6,53.4 40.6,48.6 
		42.3,48.6 42.3,60.5 	"/>
	<polygon class="st1" points="48.3,50.2 48.3,60.5 46.7,60.5 46.7,50.2 43.8,50.2 43.8,48.6 51.3,48.6 51.3,50.2 	"/>
	<polygon class="st1" points="52.8,60.5 52.8,48.6 54.4,48.6 54.4,57 58.1,48.6 59.9,48.6 59.9,60.5 58.3,60.5 58.3,52.2 54.6,60.5 
			"/>
	<polygon class="st1" points="62.4,60.5 62.4,48.6 64,48.6 64,57 67.7,48.6 69.5,48.6 69.5,60.5 67.9,60.5 67.9,52.2 64.2,60.5 	"/>
	<path class="st1" d="M79.6,60.6c-2.8,0-3.5-2.2-3.5-3.3v-5.6c0-1,0.7-3.2,3.6-3.2c2.7,0,3.5,2.2,3.5,3.2h-1.7
		c0-1.4-1.3-1.7-1.9-1.7c-0.6,0-1.9,0.2-1.9,1.7v5.6c0,1.5,1.3,1.7,1.9,1.7c0.6,0,1.9-0.2,1.9-1.7h1.7
		C83.2,58.4,82.5,60.6,79.6,60.6"/>
	<polygon class="st1" points="85.2,60.5 85.2,48.6 86.8,48.6 86.8,57 90.5,48.6 92.3,48.6 92.3,60.5 90.7,60.5 90.7,52.2 87,60.5 	
		"/>
	<path class="st1" d="M93.7,60.6V59c0.8,0,2-0.3,2-1.6v-8.9h6.8v11.9h-1.7V50.2h-3.5v7.2C97.4,59.4,96,60.6,93.7,60.6"/>
	<path class="st1" d="M112.1,57.2c0,1.1-0.6,3.2-3.4,3.2H105V48.6h1.7v4.6h2.1c2.8,0,3.4,2.2,3.4,3.3V57.2z M110.4,56.4
		c0-1.5-1.1-1.7-1.7-1.7h-2v4.2h2c0.6,0,1.8-0.2,1.8-1.7V56.4z"/>
	<polygon class="st1" points="119.6,60.5 119.6,55 115.6,55 115.6,60.5 113.9,60.5 113.9,48.6 115.6,48.6 115.6,53.4 119.6,53.4 
		119.6,48.6 121.2,48.6 121.2,60.5 	"/>
	<path class="st1" d="M127,60.6c-2.8,0-3.5-2.2-3.5-3.3v-5.6c0-1,0.7-3.2,3.6-3.2c2.7,0,3.5,2.2,3.5,3.2v5.6
		C130.6,58.4,129.9,60.6,127,60.6 M128.9,51.7c0-1.4-1.3-1.7-1.9-1.7c-0.6,0-1.9,0.2-1.9,1.7v5.6c0,1.5,1.3,1.7,1.9,1.7
		c0.6,0,1.9-0.3,1.9-1.7V51.7z"/>
	<polygon class="st1" points="139.6,48.6 139.6,50.2 134.5,50.2 134.5,60.5 132.9,60.5 132.9,48.6 	"/>
	<path class="st1" d="M144.4,60.6c-2.8,0-3.5-2.2-3.5-3.3v-5.6c0-1,0.7-3.2,3.6-3.2c2.7,0,3.5,2.2,3.5,3.2v5.6
		C147.9,58.4,147.2,60.6,144.4,60.6 M146.2,51.7c0-1.4-1.3-1.7-1.9-1.7c-0.6,0-1.9,0.2-1.9,1.7v5.6c0,1.5,1.3,1.7,1.9,1.7
		c0.6,0,1.9-0.3,1.9-1.7V51.7z"/>
	<path class="st1" d="M156.1,50.2v3h2.1c2.8,0,3.3,2.2,3.3,3.3v0.9c0,1.1-0.6,3.2-3.4,3.2h-3.7V48.6h6.8v1.6H156.1z M159.9,56.4
		c0-1.5-1.1-1.7-1.7-1.7h-2v4.2h2c0.6,0,1.8-0.2,1.8-1.7V56.4z"/>
	<path class="st1" d="M167.2,55.9h-2.1v4.5h-1.7V48.6h3.7c2.8,0,3.4,2.2,3.4,3.3v0.8C170.5,53.7,170,55.9,167.2,55.9 M168.8,51.9
		c0-1.5-1.1-1.7-1.8-1.7h-2v4.2h2c0.6,0,1.7-0.2,1.7-1.7V51.9z"/>
	<polygon class="st1" points="172.3,60.5 172.3,48.6 179.1,48.6 179.1,50.2 174,50.2 174,53.4 178.8,53.4 178.8,55 174,55 174,58.9 
		179.1,58.9 179.1,60.5 	"/>
	<polygon class="st1" points="186.7,60.5 186.7,55 182.7,55 182.7,60.5 181.1,60.5 181.1,48.6 182.7,48.6 182.7,53.4 186.7,53.4 
		186.7,48.6 188.4,48.6 188.4,60.5 	"/>
	<path class="st1" d="M198.2,62.4v-1.9h-6.6v1.9h-1.7v-3.5h1.2c0.5-0.3,0.9-0.7,1-1.5l0.8-8.8h5.8v10.3h1.2v3.5H198.2z M193.2,58.9
		h3.8v-8.7h-2.6l-0.7,7.2C193.7,57.8,193.6,58.4,193.2,58.9"/>
	<path class="st1" d="M207.7,60.5l-0.9-3.2h-3.7l-0.9,3.2h-1.7l3.2-11.9h2.4l3.2,11.9H207.7z M205,50.3l-1.5,5.4h2.9L205,50.3z"/>
</g>
</svg>
