<svg width="176" height="40" viewBox="0 0 176 40" fill="none" xmlns="http://www.w3.org/2000/svg">
<path d="M14.4437 0.75901C13.0144 1.17647 11.6978 1.70778 10.4189 2.39089L2.36939 10.5123C1.69232 11.8027 1.16572 13.1309 0.751953 14.5731L14.4437 0.75901Z" fill="#434242"/>
<path d="M3.1967 30.8539L30.5802 3.2258C30.0913 2.88425 29.6023 2.58064 29.0757 2.31499L2.29395 29.3359C2.59486 29.8672 2.89578 30.3605 3.1967 30.8539Z" fill="#434242"/>
<path d="M10.4577 37.6091L37.277 10.5503C37.0137 10.019 36.7128 9.52561 36.3743 9.03225L8.95312 36.6983C9.44212 37.0398 9.93111 37.3434 10.4577 37.6091Z" fill="#434242"/>
<path d="M39.1568 15.6357L15.4971 39.5066C16.1741 39.6584 16.8512 39.7723 17.5283 39.8482L39.4953 17.685C39.4201 17.0019 39.3072 16.2808 39.1568 15.6357Z" fill="#434242"/>
<path d="M1.5789 27.8178L27.5707 1.59392C27.0065 1.32827 26.4046 1.13851 25.8028 0.948761L0.939453 26.0342C1.12753 26.6414 1.3156 27.2106 1.5789 27.8178Z" fill="#434242"/>
<path d="M39.6458 20C39.6458 19.9241 39.6082 19.8861 39.6082 19.8102L19.6348 39.962C19.71 39.962 19.7476 40 19.8228 40C20.6127 40 21.4027 39.9241 22.1926 39.8102L39.4577 22.3909C39.5706 21.5939 39.6458 20.797 39.6458 20Z" fill="#434242"/>
<path d="M37.3894 29.1841C38.0289 27.9317 38.5555 26.6034 38.9316 25.1992L24.9766 39.2789C26.3683 38.8994 27.6848 38.3681 28.9261 37.7609L37.3894 29.1841Z" fill="#434242"/>
<path d="M13.7308 39.0133L38.6694 13.852C38.4813 13.2448 38.2556 12.6376 37.9923 12.0683L11.9629 38.3302C12.5271 38.5958 13.1289 38.8235 13.7308 39.0133Z" fill="#434242"/>
<path d="M35.4327 7.704C35.0941 7.24859 34.718 6.83113 34.3418 6.41367L6.35645 34.649C6.77021 35.0285 7.18397 35.408 7.63535 35.7495L35.4327 7.704Z" fill="#434242"/>
<path d="M0 20L19.823 0H19.6725C18.845 0 18.0551 0.0759013 17.2652 0.189753L0.188074 17.4194C0.0752295 18.2543 0 19.0892 0 19.962V20Z" fill="#434242"/>
<path d="M0.451814 24.2505L24.0363 0.455409C23.3592 0.303607 22.6445 0.189755 21.9675 0.113853L0.113281 22.1632C0.188511 22.8463 0.301355 23.5674 0.451814 24.2505Z" fill="#434242"/>
<path d="M31.8974 4.17457L4.1377 32.1822C4.47623 32.6376 4.85238 33.055 5.22852 33.5104L33.2139 5.27514C32.7625 4.89563 32.3488 4.51612 31.8974 4.17457Z" fill="#434242"/>
<path d="M41.526 0C30.6929 0.113852 21.9287 9.03226 21.9287 20C21.9287 31.0436 30.7682 40 41.7141 40C52.66 40 61.5371 31.0436 61.5371 20C61.5371 9.03226 52.7728 0.113852 41.9398 0H41.526ZM41.7141 26.148C38.3664 26.148 35.6205 23.3776 35.6205 20C35.6205 16.5844 38.3664 13.852 41.7141 13.852C45.0994 13.852 47.8077 16.5844 47.8077 20C47.8077 23.3776 45.0994 26.148 41.7141 26.148Z" fill="#373435"/>
<path d="M41.7147 13.852C45.1 13.852 47.8083 16.5844 47.8083 20C47.8083 23.3776 45.1 26.148 41.7147 26.148C38.367 26.148 35.6211 23.3776 35.6211 20C35.6211 16.5844 38.367 13.852 41.7147 13.852Z" fill="#FEFEFE"/>
<path d="M41.7145 7.81783C35.0566 7.81783 29.6777 13.2827 29.6777 20C29.6777 26.7173 35.0566 32.1442 41.7145 32.1442C48.3723 32.1442 53.7888 26.7173 53.7888 20C53.7888 13.2827 48.3723 7.81783 41.7145 7.81783ZM41.7145 26.1101C38.3667 26.1101 35.6585 23.3776 35.6585 20C35.6585 16.6224 38.3667 13.8899 41.7145 13.8899C45.0622 13.8899 47.808 16.6224 47.808 20C47.808 23.3776 45.0622 26.1101 41.7145 26.1101Z" fill="#5B5B5B"/>
<path d="M41.7148 15.7875C39.4203 15.7875 37.5771 17.685 37.5771 20C37.5771 22.315 39.4203 24.1746 41.7148 24.1746C44.0093 24.1746 45.89 22.315 45.89 20C45.89 17.685 44.0093 15.7875 41.7148 15.7875Z" fill="#373435"/>
<path d="M70.2637 0.227704C70.6398 0.151803 71.0912 0.113852 71.5426 0.0759013C72.0316 0.0379507 72.4453 0 72.8591 0C73.2352 0 73.6866 0.0379507 74.1756 0.0759013C74.6646 0.113852 75.116 0.151803 75.4921 0.227704V15.2562C76.1316 14.1935 77.1096 13.2827 78.4637 12.4858C79.7802 11.7268 81.3976 11.3093 83.316 11.3093C84.9334 11.3093 86.438 11.575 87.8298 12.1442C89.1839 12.6755 90.3876 13.4725 91.3656 14.611C92.3435 15.7116 93.1334 17.1537 93.6601 18.8615C94.2243 20.6072 94.4876 22.6186 94.4876 24.9715C94.4876 29.6774 93.1711 33.3586 90.538 36.0152C87.905 38.6717 84.1435 40 79.1784 40C77.6362 40 76.0563 39.8482 74.4013 39.5446C72.7839 39.241 71.3921 38.8994 70.2637 38.482V0.227704ZM75.4921 34.9146C76.1316 35.1423 76.8086 35.2941 77.5233 35.37C78.238 35.4459 78.9903 35.4839 79.7802 35.4839C81.0967 35.4839 82.3004 35.2941 83.3912 34.8767C84.5197 34.4592 85.46 33.852 86.2876 33.0171C87.0775 32.1822 87.7545 31.1195 88.2059 29.8292C88.6949 28.5009 88.9206 26.9829 88.9206 25.1992C88.9206 22.2391 88.4316 19.962 87.3784 18.3302C86.3628 16.6983 84.6701 15.8634 82.3004 15.8634C81.5105 15.8634 80.7206 15.9772 79.8931 16.2429C79.1031 16.5465 78.3885 16.9639 77.7114 17.5332C77.0343 18.1404 76.5077 18.8994 76.094 19.8861C75.6802 20.8729 75.4921 22.0493 75.4921 23.4535V34.9146Z" fill="#373435"/>
<path d="M111.453 21.2903C111.453 19.203 110.926 17.7609 109.873 16.926C108.782 16.129 107.277 15.7116 105.246 15.7116C104.005 15.7116 102.876 15.7875 101.786 15.9772C100.695 16.2049 99.6792 16.4326 98.626 16.7742C97.9865 15.5977 97.648 14.1935 97.648 12.5617C98.8517 12.1442 100.168 11.8406 101.598 11.6509C103.065 11.4231 104.456 11.3093 105.773 11.3093C109.309 11.3093 111.979 12.1442 113.822 13.7381C115.665 15.37 116.568 17.9507 116.568 21.518V38.6338C115.327 38.9374 113.86 39.241 112.092 39.5446C110.324 39.8482 108.519 40 106.676 40C104.945 40 103.403 39.8102 102.011 39.5066C100.62 39.1651 99.4159 38.6717 98.4755 37.9507C97.4975 37.2296 96.7452 36.3188 96.2186 35.2182C95.692 34.1176 95.4287 32.7894 95.4287 31.2334C95.4287 29.7154 95.7296 28.3491 96.3315 27.2106C96.9709 26.0342 97.7984 25.0854 98.8517 24.3264C99.9049 23.5674 101.146 22.9981 102.5 22.6186C103.892 22.2391 105.321 22.0493 106.826 22.0493C107.954 22.0493 108.895 22.0873 109.609 22.1252C110.324 22.2011 110.964 22.2391 111.453 22.315V21.2903ZM111.453 26.4896C110.926 26.4137 110.249 26.3378 109.421 26.2619C108.631 26.186 107.917 26.148 107.39 26.148C105.171 26.148 103.516 26.5655 102.387 27.4004C101.221 28.1973 100.657 29.4497 100.657 31.1195C100.657 32.1822 100.845 33.0171 101.221 33.6243C101.635 34.2315 102.124 34.6869 102.688 35.0285C103.29 35.3321 103.93 35.5218 104.607 35.5977C105.321 35.6736 105.998 35.7116 106.638 35.7116C107.428 35.7116 108.293 35.6736 109.158 35.5977C110.023 35.4839 110.776 35.37 111.453 35.1803V26.4896Z" fill="#373435"/>
<path d="M119.2 34.3833C120.141 34.7628 121.194 35.0664 122.322 35.3321C123.488 35.5598 124.617 35.6736 125.745 35.6736C126.573 35.6736 127.325 35.5598 128.077 35.408C128.83 35.2182 129.469 34.9526 129.996 34.5731C130.56 34.2315 131.011 33.814 131.35 33.2827C131.651 32.7514 131.839 32.1822 131.839 31.537C131.839 30.8539 131.688 30.2467 131.425 29.7913C131.162 29.3359 130.823 28.9184 130.372 28.6148C129.92 28.3112 129.431 28.0076 128.83 27.7799C128.265 27.5522 127.626 27.3245 126.949 27.1347L125.106 26.4137C122.849 25.5787 121.231 24.63 120.178 23.5294C119.163 22.4668 118.674 21.0247 118.674 19.241C118.674 16.8121 119.501 14.8767 121.231 13.4725C122.924 12.0304 125.444 11.3093 128.754 11.3093C130.146 11.3093 131.5 11.4611 132.817 11.7268C134.133 11.9924 135.299 12.296 136.277 12.6755C136.202 13.3586 136.089 14.0797 135.864 14.8008C135.676 15.5218 135.45 16.167 135.149 16.7742C134.397 16.4706 133.456 16.2049 132.403 15.9393C131.312 15.6736 130.146 15.5218 128.905 15.5218C127.626 15.5218 126.46 15.7875 125.444 16.2429C124.466 16.6983 123.94 17.5332 123.94 18.6717C123.94 19.2789 124.09 19.8102 124.316 20.2277C124.579 20.6831 124.918 21.0247 125.331 21.3283C125.745 21.6319 126.234 21.8975 126.798 22.0873C127.325 22.315 127.927 22.5427 128.566 22.7324L130.898 23.5294C131.726 23.833 132.516 24.1746 133.306 24.5541C134.058 24.9336 134.698 25.4269 135.262 26.0342C135.788 26.6034 136.24 27.3245 136.578 28.1594C136.917 28.9943 137.067 30.019 137.067 31.1954C137.067 32.4858 136.804 33.7002 136.277 34.7628C135.751 35.8634 134.998 36.7742 134.02 37.5712C133.043 38.3302 131.876 38.8994 130.522 39.3548C129.131 39.7723 127.626 40 125.971 40C124.278 40 122.774 39.8482 121.532 39.6205C120.253 39.3928 119.05 39.0892 117.959 38.7097C118.034 37.9886 118.185 37.2676 118.41 36.5465C118.636 35.8254 118.899 35.1044 119.2 34.3833Z" fill="#373435"/>
<path d="M144.365 0.948764C144.817 0.910813 145.23 0.834912 145.719 0.796961C146.171 0.75901 146.622 0.75901 147.073 0.75901C147.525 0.75901 147.976 0.75901 148.465 0.796961C148.917 0.834912 149.33 0.910813 149.782 0.948764V39.3548C149.33 39.4307 148.917 39.4687 148.465 39.5066C148.051 39.5446 147.562 39.5446 147.073 39.5446C146.622 39.5446 146.133 39.5446 145.682 39.5066C145.193 39.4687 144.779 39.4307 144.365 39.3548V0.948764Z" fill="#D12023"/>
<path d="M152.717 0.910813C153.281 0.834911 153.883 0.75901 154.598 0.721059C155.35 0.645158 156.102 0.569257 156.892 0.531306C157.682 0.455405 158.472 0.417454 159.262 0.379503C160.052 0.341553 160.842 0.341553 161.556 0.341553C163.512 0.341553 165.355 0.531306 167.086 0.910813C168.854 1.29032 170.358 1.97343 171.712 2.96015C173.029 3.90892 174.082 5.16129 174.834 6.75522C175.624 8.34914 176 10.3226 176 12.7135C176 15.2182 175.587 17.2676 174.759 18.9374C173.932 20.5693 172.841 21.8975 171.487 22.9222C170.132 23.9089 168.59 24.592 166.86 25.0095C165.13 25.4269 163.362 25.6167 161.556 25.6167C160.879 25.6167 160.315 25.6167 159.788 25.6167C159.299 25.5787 158.735 25.5408 158.133 25.4649V39.3548C157.268 39.4307 156.365 39.5066 155.425 39.5066C155.011 39.5066 154.56 39.5066 154.071 39.4687C153.62 39.4687 153.168 39.4307 152.717 39.3548V0.910813ZM158.133 20.7211C158.698 20.797 159.187 20.8349 159.6 20.8729C160.052 20.9108 160.654 20.9488 161.481 20.9488C162.572 20.9488 163.625 20.8349 164.716 20.5693C165.807 20.3416 166.747 19.9241 167.612 19.3169C168.44 18.7097 169.117 17.9127 169.643 16.8501C170.132 15.7875 170.396 14.4213 170.396 12.7514C170.396 11.3093 170.17 10.0949 169.756 9.07021C169.305 8.08349 168.703 7.28653 167.913 6.67931C167.123 6.0721 166.22 5.65465 165.13 5.38899C164.001 5.16129 162.835 5.00948 161.556 5.00948C160.277 5.00948 159.111 5.08539 158.133 5.19924V20.7211Z" fill="#D12023"/>
<path d="M42.8056 16.3947C41.6772 16.3947 40.7744 17.3055 40.7744 18.444C40.7744 19.5825 41.6772 20.4934 42.8056 20.4934C43.8964 20.4934 44.7992 19.5825 44.7992 18.444C44.7992 17.3055 43.8964 16.3947 42.8056 16.3947Z" fill="#D32D23"/>
</svg>
